<?xml version="1.0" encoding="iso-8859-1"?>
<!-- Generator: Adobe Illustrator 19.0.0, SVG Export Plug-In . SVG Version: 6.00 Build 0)  -->
<svg version="1.1" id="Layer_1" xmlns="http://www.w3.org/2000/svg" xmlns:xlink="http://www.w3.org/1999/xlink" x="0px" y="0px"
	 viewBox="0 0 512 512" style="enable-background:new 0 0 512 512;" xml:space="preserve">
<path style="fill:#DBCF56;" d="M408.641,57.622c-11.142-11.954-23.732-22.044-37.577-30.147
	c13.817,63.269-6.466,129.993-54.595,174.866c-48.11,44.878-116.098,60.465-178.237,42.253
	c7.111,14.384,16.298,27.643,27.449,39.597c62.472,66.995,167.787,70.657,234.769,8.195c32.449-30.258,51.173-71.344,52.713-115.687
	C454.713,132.361,438.904,90.071,408.641,57.622z"/>
<path style="fill:#81A4E3;" d="M151.865,297.076c-0.068-0.073-0.123-0.153-0.19-0.226c-17.745,15.217-27.905,36.48-27.905,59.308
	c0,2.334,0.111,4.639,0.314,6.927c0.286,3.159-1.042,6.254-3.523,8.232s-5.774,2.596-8.809,1.591
	c-5.267-1.711-10.755-2.583-16.317-2.583c-31.25,0-56.67,27.542-56.67,61.392s25.42,61.392,56.67,61.392h207.789
	c36.811-2.384,66.115-35.585,66.115-75.56c0-28.206-14.573-53.871-38.029-66.977c-0.089-0.05-0.136-0.138-0.222-0.191
	c-14.418,3.503-29.131,5.433-43.866,5.435C237.672,355.817,188.243,336.087,151.865,297.076z"/>
<g>
	<path style="fill:#314E55;" d="M472.044,177.359c1.725-49.383-15.883-96.483-49.586-132.617
		c-17.746-19.038-38.794-33.837-62.564-43.987c-3.44-1.457-7.416-0.77-10.146,1.78c-2.74,2.55-3.708,6.47-2.49,10.003
		c21.537,62.098,4.391,131.173-43.665,175.986c-48.046,44.822-118.145,57.103-178.606,31.291c-3.44-1.462-7.416-0.77-10.146,1.78
		c-2.74,2.55-3.708,6.47-2.49,10.003c6.373,18.373,15.488,35.392,27.174,50.808c-20.975,17.915-33.421,42.742-34.562,69.661
		c-3.145-0.42-6.327-0.632-9.528-0.632c-41.663,0-75.56,36.014-75.56,80.282S53.772,512,95.435,512l208.398-0.018
		c47.326-3.044,84.396-44.522,84.396-94.431c0-29.326-12.925-56.377-34.34-74.1c21.425-8.255,41.647-20.656,59.437-37.247
		C449.474,272.5,470.319,226.746,472.044,177.359z M331.31,350.573c23.456,13.107,38.029,38.771,38.029,66.977
		c0,39.975-29.303,73.175-66.115,75.56H95.435c-31.25,0-56.67-27.542-56.67-61.392s25.42-61.392,56.67-61.392
		c5.562,0,11.05,0.872,16.317,2.583c3.035,1.005,6.327,0.387,8.809-1.591c2.481-1.978,3.809-5.073,3.523-8.232
		c-0.203-2.288-0.314-4.593-0.314-6.927c0-22.827,10.16-44.091,27.905-59.308c0.068,0.073,0.123,0.153,0.19,0.226
		c36.378,39.011,85.807,58.74,135.356,58.74c14.735-0.002,29.449-1.932,43.866-5.435
		C331.174,350.435,331.221,350.524,331.31,350.573z M165.682,284.191c-11.151-11.954-20.338-25.213-27.449-39.597
		c62.139,18.212,130.127,2.624,178.237-42.253c48.129-44.873,68.412-111.596,54.595-174.866
		c13.845,8.103,26.435,18.194,37.577,30.147c30.263,32.449,46.072,74.739,44.522,119.077c-1.54,44.342-20.264,85.429-52.713,115.687
		C333.469,354.848,228.153,351.187,165.682,284.191z"/>
	<path style="fill:#314E55;" d="M210.232,85.528c1.845,1.845,4.261,2.767,6.678,2.767s4.833-0.922,6.678-2.767l13.522-13.524
		l13.522,13.524c1.845,1.845,4.261,2.767,6.678,2.767c2.416,0,4.833-0.922,6.678-2.767c3.689-3.689,3.689-9.666,0-13.356
		l-13.522-13.524l13.172-13.174c3.689-3.689,3.689-9.666,0-13.356s-9.666-3.689-13.356,0L237.11,45.293l-13.171-13.174
		c-3.689-3.689-9.666-3.689-13.356,0s-3.689,9.666,0,13.356l13.172,13.174l-13.522,13.524
		C206.543,75.862,206.543,81.839,210.232,85.528z"/>
	<path style="fill:#314E55;" d="M38.765,251.459l13.522,13.524c1.845,1.845,4.261,2.767,6.678,2.767
		c2.416,0,4.833-0.922,6.678-2.767c3.689-3.689,3.689-9.666,0-13.356l-13.522-13.524l13.172-13.174
		c3.689-3.689,3.689-9.666,0-13.356c-3.689-3.689-9.666-3.689-13.356,0l-13.171,13.174l-13.171-13.174
		c-3.689-3.689-9.666-3.689-13.356,0c-3.689,3.689-3.689,9.666,0,13.356l13.172,13.174l-13.522,13.524
		c-3.689,3.689-3.689,9.666,0,13.356c1.845,1.845,4.261,2.767,6.678,2.767s4.833-0.922,6.678-2.767L38.765,251.459z"/>
	<path style="fill:#314E55;" d="M500.111,431.081l-13.522-13.524l13.172-13.174c3.689-3.689,3.689-9.666,0-13.356
		c-3.689-3.689-9.666-3.689-13.356,0l-13.171,13.174l-13.171-13.174c-3.689-3.689-9.666-3.689-13.356,0
		c-3.689,3.689-3.689,9.666,0,13.356l13.172,13.174l-13.522,13.524c-3.689,3.689-3.689,9.666,0,13.356
		c1.845,1.845,4.261,2.767,6.678,2.767c2.417,0,4.833-0.922,6.678-2.767l13.522-13.524l13.522,13.524
		c1.845,1.845,4.261,2.767,6.678,2.767s4.833-0.922,6.678-2.767C503.801,440.748,503.801,434.771,500.111,431.081z"/>
</g>
<g>
</g>
<g>
</g>
<g>
</g>
<g>
</g>
<g>
</g>
<g>
</g>
<g>
</g>
<g>
</g>
<g>
</g>
<g>
</g>
<g>
</g>
<g>
</g>
<g>
</g>
<g>
</g>
<g>
</g>
</svg>
