<?xml version="1.0" encoding="iso-8859-1"?>
<!-- Generator: Adobe Illustrator 19.0.0, SVG Export Plug-In . SVG Version: 6.00 Build 0)  -->
<svg version="1.1" id="Layer_1" xmlns="http://www.w3.org/2000/svg" xmlns:xlink="http://www.w3.org/1999/xlink" x="0px" y="0px"
	 viewBox="0 0 512.001 512.001" style="enable-background:new 0 0 512.001 512.001;" xml:space="preserve">
<path style="fill:#E7EBEC;" d="M273.067,110.933c0-32.937-26.797-59.733-59.733-59.733c-3.531,0-7.028,0.307-10.468,0.917
	c-3.167-13.056-10.145-24.939-20.199-34.165C170.051,6.377,153.668,0,136.534,0s-33.517,6.377-46.132,17.953
	C80.348,27.18,73.369,39.062,70.202,52.118c-3.44-0.611-6.938-0.918-10.468-0.918c-32.937,0-59.733,26.797-59.733,59.733
	s26.797,59.733,59.733,59.733h153.6C246.27,170.667,273.067,143.87,273.067,110.933z"/>
<g>
	<path style="fill:#CED7D9;" d="M221.867,153.6h-153.6c-32.937,0-59.733-26.797-59.733-59.733c0-6.164,0.94-12.113,2.681-17.711
		C4.168,85.959,0.001,97.965,0.001,110.933c0,32.937,26.797,59.733,59.733,59.733h153.6c26.773,0,49.488-17.706,57.053-42.022
		C259.534,143.741,241.836,153.6,221.867,153.6z"/>
	<path style="fill:#CED7D9;" d="M80.347,29.495c-1.185,1.714-2.281,3.484-3.3,5.294c0.564,0.083,1.129,0.162,1.69,0.261
		C79.192,33.172,79.735,31.322,80.347,29.495z"/>
</g>
<path style="fill:#E7EBEC;" d="M452.267,392.533c-3.531,0-7.028,0.307-10.468,0.917c-3.167-13.055-10.145-24.939-20.199-34.165
	c-12.614-11.575-28.998-17.952-46.132-17.952s-33.518,6.377-46.132,17.953c-10.054,9.227-17.033,21.11-20.199,34.165
	c-3.441-0.61-6.939-0.917-10.468-0.917c-32.938,0-59.733,26.797-59.733,59.733s26.796,59.733,59.733,59.733h153.6
	c32.938,0,59.733-26.797,59.733-59.733S485.205,392.533,452.267,392.533z"/>
<path style="fill:#CED7D9;" d="M460.801,494.933h-153.6c-32.938,0-59.733-26.797-59.733-59.733c0-6.164,0.94-12.113,2.681-17.711
	c-7.046,9.803-11.214,21.809-11.214,34.778c0,32.937,26.796,59.733,59.733,59.733h153.6c26.773,0,49.488-17.706,57.053-42.022
	C498.468,485.074,480.77,494.933,460.801,494.933z"/>
<path style="fill:#E7EBEC;" d="M426.667,128c0-18.821-15.312-34.133-34.133-34.133c-18.821,0-34.133,15.312-34.133,34.133
	c-18.821,0-34.133,15.312-34.133,34.133s15.312,34.133,34.133,34.133h68.267c18.821,0,34.133-15.312,34.133-34.133
	S445.489,128,426.667,128z"/>
<path style="fill:#CED7D9;" d="M435.201,187.733h-68.267c-18.821,0-34.133-15.312-34.133-34.133c0-7.235,2.27-13.948,6.125-19.475
	c-8.851,6.174-14.658,16.423-14.658,28.009c0,18.821,15.312,34.133,34.133,34.133h68.267c11.585,0,21.835-5.807,28.009-14.658
	C449.147,185.463,442.436,187.733,435.201,187.733z"/>
<path style="fill:#E7EBEC;" d="M119.467,409.6c0-18.821-15.312-34.133-34.133-34.133S51.201,390.779,51.201,409.6
	c-18.821,0-34.133,15.312-34.133,34.133s15.312,34.133,34.133,34.133h68.267c18.821,0,34.133-15.312,34.133-34.133
	S138.289,409.6,119.467,409.6z"/>
<path style="fill:#CED7D9;" d="M128.001,469.333H59.734c-18.821,0-34.133-15.312-34.133-34.133c0-7.235,2.27-13.948,6.125-19.475
	c-8.851,6.174-14.658,16.423-14.658,28.009c0,18.821,15.312,34.133,34.133,34.133h68.267c11.585,0,21.835-5.807,28.009-14.658
	C141.947,467.064,135.236,469.333,128.001,469.333z"/>
<path style="fill:#FDD349;" d="M221.867,221.867c-37.643,0-68.267,30.624-68.267,68.267s30.624,68.267,68.267,68.267
	s68.267-30.624,68.267-68.267S259.51,221.867,221.867,221.867z"/>
<g>
	<path style="fill:#FF8B1B;" d="M221.867,213.333c-4.713,0-8.533-3.821-8.533-8.533v-17.067c0-4.713,3.821-8.533,8.533-8.533
		c4.713,0,8.533,3.821,8.533,8.533V204.8C230.401,209.513,226.58,213.333,221.867,213.333z"/>
	<path style="fill:#FF8B1B;" d="M161.528,238.327c-2.183,0-4.368-0.833-6.034-2.499l-12.068-12.068
		c-3.333-3.332-3.333-8.735,0-12.067c3.332-3.332,8.735-3.332,12.067,0l12.068,12.068c3.333,3.332,3.333,8.735,0,12.067
		C165.895,237.493,163.711,238.327,161.528,238.327z"/>
	<path style="fill:#FF8B1B;" d="M136.534,298.667h-17.067c-4.713,0-8.533-3.821-8.533-8.533c0-4.713,3.821-8.533,8.533-8.533h17.067
		c4.713,0,8.533,3.821,8.533,8.533C145.067,294.846,141.246,298.667,136.534,298.667z"/>
	<path style="fill:#FF8B1B;" d="M149.46,371.074c-2.183,0-4.368-0.833-6.034-2.499c-3.333-3.332-3.333-8.735,0-12.067l12.068-12.068
		c3.332-3.332,8.735-3.332,12.067,0c3.333,3.332,3.333,8.735,0,12.067l-12.068,12.068
		C153.827,370.241,151.643,371.074,149.46,371.074z"/>
	<path style="fill:#FF8B1B;" d="M221.867,401.067c-4.713,0-8.533-3.821-8.533-8.533v-17.067c0-4.713,3.821-8.533,8.533-8.533
		c4.713,0,8.533,3.821,8.533,8.533v17.067C230.401,397.246,226.58,401.067,221.867,401.067z"/>
	<path style="fill:#FF8B1B;" d="M294.275,371.074c-2.185,0-4.368-0.833-6.034-2.499l-12.067-12.068
		c-3.332-3.332-3.332-8.735,0.001-12.067c3.333-3.333,8.736-3.332,12.067,0l12.067,12.068c3.332,3.333,3.332,8.735-0.001,12.067
		C298.643,370.241,296.458,371.074,294.275,371.074z"/>
	<path style="fill:#FF8B1B;" d="M324.267,298.667h-17.067c-4.713,0-8.533-3.821-8.533-8.533c0-4.713,3.821-8.533,8.533-8.533h17.067
		c4.713,0,8.533,3.821,8.533,8.533C332.801,294.846,328.98,298.667,324.267,298.667z"/>
	<path style="fill:#FF8B1B;" d="M282.206,238.327c-2.185,0-4.368-0.833-6.033-2.499c-3.333-3.332-3.333-8.735-0.001-12.067
		l12.067-12.068c3.333-3.332,8.736-3.333,12.067,0c3.333,3.332,3.333,8.735,0.001,12.067l-12.067,12.068
		C286.574,237.493,284.391,238.327,282.206,238.327z"/>
</g>
<g>
</g>
<g>
</g>
<g>
</g>
<g>
</g>
<g>
</g>
<g>
</g>
<g>
</g>
<g>
</g>
<g>
</g>
<g>
</g>
<g>
</g>
<g>
</g>
<g>
</g>
<g>
</g>
<g>
</g>
</svg>
