<?xml version="1.0" encoding="iso-8859-1"?>
<!-- Generator: Adobe Illustrator 19.0.0, SVG Export Plug-In . SVG Version: 6.00 Build 0)  -->
<svg version="1.1" id="Layer_1" xmlns="http://www.w3.org/2000/svg" xmlns:xlink="http://www.w3.org/1999/xlink" x="0px" y="0px"
	 viewBox="0 0 512 512" style="enable-background:new 0 0 512 512;" xml:space="preserve">
<circle style="fill:#FFD366;" cx="256" cy="256" r="111.304"/>
<path d="M256,133.565c-67.511,0-122.435,54.924-122.435,122.435S188.489,378.435,256,378.435S378.435,323.511,378.435,256
	S323.511,133.565,256,133.565z M256,356.174c-55.236,0-100.174-44.938-100.174-100.174S200.764,155.826,256,155.826
	S356.174,200.764,356.174,256S311.236,356.174,256,356.174z"/>
<path d="M333.89,254.058c-0.151-6.145-5.25-11.004-11.4-10.854c-6.145,0.15-11.005,5.255-10.854,11.4
	c0.011,0.464,0.018,0.929,0.018,1.396c0,6.147,4.983,11.13,11.13,11.13c6.147,0,11.13-4.983,11.13-11.13
	C333.913,255.351,333.905,254.703,333.89,254.058z"/>
<path d="M319.281,210.538c-14.621-20.32-38.278-32.451-63.281-32.451c-6.147,0-11.13,4.983-11.13,11.13
	c0,6.147,4.983,11.13,11.13,11.13c17.861,0,34.763,8.669,45.211,23.191c2.175,3.023,5.584,4.631,9.043,4.631
	c2.252,0,4.525-0.681,6.491-2.097C321.736,222.483,322.871,215.527,319.281,210.538z"/>
<path d="M256,410.365c-6.147,0-11.13,4.983-11.13,11.13v79.374c0,6.147,4.983,11.13,11.13,11.13s11.13-4.983,11.13-11.13v-79.374
	C267.13,415.348,262.147,410.365,256,410.365z"/>
<path d="M256,101.635c6.147,0,11.13-4.983,11.13-11.13V11.13C267.13,4.983,262.147,0,256,0s-11.13,4.983-11.13,11.13v79.374
	C244.87,96.651,249.853,101.635,256,101.635z"/>
<path d="M381.016,365.275c-4.346-4.346-11.394-4.346-15.742,0c-4.346,4.346-4.346,11.394,0,15.742l47.766,47.766
	c2.174,2.174,5.022,3.26,7.87,3.26c2.848,0,5.698-1.086,7.87-3.26c4.346-4.346,4.346-11.394,0-15.742L381.016,365.275z"/>
<path d="M131.104,146.846c2.174,2.174,5.022,3.26,7.87,3.26c2.848,0,5.698-1.086,7.87-3.26c4.346-4.346,4.346-11.394,0-15.742
	L98.958,83.218c-4.346-4.346-11.394-4.346-15.742,0c-4.346,4.346-4.346,11.394,0,15.742L131.104,146.846z"/>
<path d="M500.87,244.87h-79.374c-6.147,0-11.13,4.983-11.13,11.13s4.983,11.13,11.13,11.13h79.374c6.147,0,11.13-4.983,11.13-11.13
	S507.017,244.87,500.87,244.87z"/>
<path d="M101.635,256c0-6.147-4.983-11.13-11.13-11.13H11.13C4.983,244.87,0,249.853,0,256s4.983,11.13,11.13,11.13h79.374
	C96.652,267.13,101.635,262.147,101.635,256z"/>
<path d="M373.023,150.107c2.848,0,5.698-1.086,7.87-3.26l47.889-47.889c4.346-4.346,4.346-11.394,0-15.742
	c-4.346-4.346-11.394-4.346-15.742,0l-47.889,47.889c-4.346,4.346-4.346,11.394,0,15.742
	C367.326,149.021,370.175,150.107,373.023,150.107z"/>
<path d="M131.107,365.152L83.218,413.04c-4.346,4.346-4.346,11.394,0,15.742c2.174,2.174,5.022,3.26,7.87,3.26
	c2.848,0,5.698-1.086,7.87-3.26l47.889-47.889c4.346-4.346,4.346-11.394,0-15.742C142.501,360.805,135.453,360.805,131.107,365.152z
	"/>
<g>
</g>
<g>
</g>
<g>
</g>
<g>
</g>
<g>
</g>
<g>
</g>
<g>
</g>
<g>
</g>
<g>
</g>
<g>
</g>
<g>
</g>
<g>
</g>
<g>
</g>
<g>
</g>
<g>
</g>
</svg>
